<?xml version="1.0" encoding="UTF-8" standalone="no"?>
<!DOCTYPE svg PUBLIC "-//W3C//DTD SVG 1.1//EN"
 "http://www.w3.org/Graphics/SVG/1.1/DTD/svg11.dtd">
<!-- Generated by graphviz version 8.0.3 (20230416.2022)
 -->
<!-- Title: HardwareModel Pages: 1 -->
<svg preserveAspectRatio="xMidYMid meet" width="100%" height="100%"
 viewBox="0.00 0.00 695.66 275.40" xmlns="http://www.w3.org/2000/svg" xmlns:xlink="http://www.w3.org/1999/xlink">
<g id="graph0" class="graph" transform="scale(1 1) rotate(0) translate(25.2 250.2)">
<title>HardwareModel</title>
<polygon fill="#f6f1e8" stroke="none" points="-25.2,25.2 -25.2,-250.2 670.46,-250.2 670.46,25.2 -25.2,25.2"/>
<text text-anchor="middle" x="275.5" y="-200.2" font-family="Iowan Old Style" font-size="26.00" fill="#183247">FD2&#45;VD Cryogenic Instrumentation · Overview</text>
<g id="clust1" class="cluster">
<title>cluster_fd2_vd_ci_purity_monitors</title>
<g id="a_clust1"><a xlink:href="../explorer.html#object=fd2_vd_ci.purity_monitors" xlink:title="Open Purity Monitors in the interactive explorer" target="_top">
<path fill="#fbf7f0" stroke="#c7b8a1" stroke-width="1.1" d="M394.25,-98C394.25,-98 580,-98 580,-98 586,-98 592,-104 592,-110 592,-110 592,-168 592,-168 592,-174 586,-180 580,-180 580,-180 394.25,-180 394.25,-180 388.25,-180 382.25,-174 382.25,-168 382.25,-168 382.25,-110 382.25,-110 382.25,-104 388.25,-98 394.25,-98"/>
<text text-anchor="middle" x="434.25" y="-165.6" font-family="Avenir Next" font-size="13.00" fill="#5a4634">Purity Monitors</text>
</a>
</g>
</g>
<g id="clust2" class="cluster">
<title>cluster_fd2_vd_ci_tms</title>
<g id="a_clust2"><a xlink:href="../explorer.html#object=fd2_vd_ci.tms" xlink:title="Open Temperature Monitoring System in the interactive explorer" target="_top">
<path fill="#fbf7f0" stroke="#c7b8a1" stroke-width="1.1" d="M349,-8C349,-8 625.26,-8 625.26,-8 631.26,-8 637.26,-14 637.26,-20 637.26,-20 637.26,-78 637.26,-78 637.26,-84 631.26,-90 625.26,-90 625.26,-90 349,-90 349,-90 343,-90 337,-84 337,-78 337,-78 337,-20 337,-20 337,-14 343,-8 349,-8"/>
<text text-anchor="middle" x="439.5" y="-75.6" font-family="Avenir Next" font-size="13.00" fill="#5a4634">Temperature Monitoring System</text>
</a>
</g>
</g>
<!-- fd2_vd_ci -->
<g id="node1" class="node">
<title>fd2_vd_ci</title>
<g id="a_node1"><a xlink:href="../explorer.html#object=fd2_vd_ci" xlink:title="Open FD2&#45;VD Cryogenic Instrumentation in the interactive explorer" target="_top">
<path fill="#183247" stroke="#183247" stroke-width="1.5" d="M275,-104C275,-104 12,-104 12,-104 6,-104 0,-98 0,-92 0,-92 0,-74 0,-74 0,-68 6,-62 12,-62 12,-62 275,-62 275,-62 281,-62 287,-68 287,-74 287,-74 287,-92 287,-92 287,-98 281,-104 275,-104"/>
<text text-anchor="middle" x="143.5" y="-79.2" font-family="Avenir Next" font-size="16.00" fill="#ffffff">FD2&#45;VD Cryogenic Instrumentation</text>
</a>
</g>
</g>
<!-- fd2_vd_ci_prm_array -->
<g id="node2" class="node">
<title>fd2_vd_ci_prm_array</title>
<g id="a_node2"><a xlink:href="../explorer.html#object=fd2_vd_ci.prm_array" xlink:title="Open Purity Monitor Array in the interactive explorer" target="_top">
<ellipse fill="#f7dde0" stroke="#a14656" stroke-width="1.3" cx="487.13" cy="-128" rx="96.75" ry="21.84"/>
<text text-anchor="middle" x="487.13" y="-124.9" font-family="Avenir Next" font-size="12.00" fill="#4a1823">Purity Monitor Array</text>
</a>
</g>
</g>
<!-- fd2_vd_ci&#45;&gt;fd2_vd_ci_prm_array -->
<g id="edge2" class="edge">
<title>fd2_vd_ci&#45;&gt;fd2_vd_ci_prm_array</title>
<g id="a_edge2"><a xlink:href="../explorer.html#object=relation%3A2" xlink:title="Open contains relation in the interactive explorer" target="_top">
<path fill="none" stroke="#274c67" stroke-width="1.4" d="M287.4,-101.82C323.18,-106.54 360.64,-111.47 393.27,-115.77"/>
<polygon fill="#274c67" stroke="#274c67" stroke-width="1.4" points="392.48,-118.75 400.78,-117.02 393.22,-113.2 392.48,-118.75"/>
</a>
</g>
</g>
<!-- fd2_vd_ci_temperature_monitoring_system -->
<g id="node3" class="node">
<title>fd2_vd_ci_temperature_monitoring_system</title>
<g id="a_node3"><a xlink:href="../explorer.html#object=fd2_vd_ci.temperature_monitoring_system" xlink:title="Open Temperature Monitoring System in the interactive explorer" target="_top">
<ellipse fill="#f7dde0" stroke="#a14656" stroke-width="1.3" cx="487.13" cy="-38" rx="142.26" ry="21.84"/>
<text text-anchor="middle" x="487.13" y="-34.9" font-family="Avenir Next" font-size="12.00" fill="#4a1823">Temperature Monitoring System</text>
</a>
</g>
</g>
<!-- fd2_vd_ci&#45;&gt;fd2_vd_ci_temperature_monitoring_system -->
<g id="edge1" class="edge">
<title>fd2_vd_ci&#45;&gt;fd2_vd_ci_temperature_monitoring_system</title>
<g id="a_edge1"><a xlink:href="../explorer.html#object=relation%3A1" xlink:title="Open contains relation in the interactive explorer" target="_top">
<path fill="none" stroke="#274c67" stroke-width="1.4" d="M287.4,-64.18C314.15,-60.65 341.84,-57.01 367.75,-53.59"/>
<polygon fill="#274c67" stroke="#274c67" stroke-width="1.4" points="368.02,-56.12 375.59,-52.3 367.29,-50.57 368.02,-56.12"/>
</a>
</g>
</g>
</g>
</svg>
